<?xml version="1.0" encoding="UTF-8" standalone="no"?>
<!DOCTYPE svg PUBLIC "-//W3C//DTD SVG 1.1//EN" "http://www.w3.org/Graphics/SVG/1.1/DTD/svg11.dtd">
<svg width="100%" height="100%" viewBox="0 0 150 150" version="1.1" xmlns="http://www.w3.org/2000/svg" xmlnsXlink="http://www.w3.org/1999/xlink" xmlSpace="preserve" xmlnsSerif="http://www.serif.com/" style="fill-rule:evenodd;clip-rule:evenodd;stroke-linejoin:round;stroke-miterlimit:2;">
    <g transform="matrix(1.59121,0,-2.9687e-16,1.59121,-406.472,-438.669)">
        <circle cx="302.581" cy="322.816" r="47.134" style="fill:rgb(204,204,204);"/>
    </g>
    <g transform="matrix(1.59121,0,-2.9687e-16,1.59121,-406.472,-438.669)">
        <circle cx="302.581" cy="322.816" r="41.199" style="fill:rgb(231,231,231);"/>
    </g>
    <g transform="matrix(0.781776,0,0,0.781776,-3398.45,-1184.9)">
        <path d="M4496.24,1563.33C4507.82,1576.09 4514.87,1593.02 4514.87,1611.59C4514.87,1651.25 4482.68,1683.45 4443.02,1683.45C4424.45,1683.45 4407.52,1676.39 4394.75,1664.81C4422.3,1671.56 4452.61,1664.18 4474.11,1642.68C4495.61,1621.18 4502.98,1590.88 4496.24,1563.33Z" style="fill:rgb(204,204,204);"/>
    </g>
    <g transform="matrix(0.781936,0,-1.45884e-16,0.371265,-161.599,-87.9193)">
        <circle cx="302.581" cy="322.816" r="35.304" style="fill:rgb(248,248,248);"/>
    </g>
    <g transform="matrix(0.781776,0,0,0.781776,-3120.56,-1123.36)">
        <path d="M4088.18,1494.03L4059.84,1465.68L4048.08,1477.44L4076.42,1505.79L4048.69,1533.52L4059.22,1544.05L4086.95,1516.32L4115.3,1544.67L4127.06,1532.9L4098.72,1504.56L4126.45,1476.83L4115.91,1466.3L4088.18,1494.03Z" style="fill:rgb(197,0,47);"/>
    </g>
    <g transform="matrix(0.3833,0,-8.91801e-33,0.37037,-173.679,-5.70679)">
        <text x="517.975px" y="329.705px" style="font-family:'Lato-Black', 'Lato', sans-serif;font-weight:900;font-size:96px;fill:rgb(53,53,53);">F<tspan x="567.607px 640.567px 706.423px 752.407px " y="329.705px 329.705px 329.705px 329.705px ">OUL!</tspan></text>
        <path d="M568.759,259.769L568.759,272.249L540.055,272.249L540.055,289.961L563.959,289.961L563.959,302.489L540.055,302.489L540.055,329.705L523.735,329.705L523.735,259.769L568.759,259.769ZM582.338,266.922L582.338,272.249C582.338,277.147 579.917,281.46 576.245,283.973C577.075,285.789 577.538,287.819 577.538,289.961L577.538,302.489C577.538,306.214 576.137,309.601 573.848,312.114C573.294,311.056 572.79,309.96 572.335,308.825C570.591,304.473 569.719,299.769 569.719,294.713C569.719,289.657 570.591,284.953 572.335,280.601C574.079,276.249 576.543,272.473 579.727,269.273C580.554,268.443 581.423,267.659 582.338,266.922Z" style="fill:rgb(53,53,53);"/>
        <path d="M642.391,294.713C642.391,299.769 641.519,304.473 639.775,308.825C638.031,313.177 635.575,316.961 632.407,320.177C629.239,323.393 625.423,325.913 620.959,327.737C616.495,329.561 611.543,330.473 606.103,330.473C600.663,330.473 595.703,329.561 591.223,327.737C586.743,325.913 582.911,323.393 579.727,320.177C576.543,316.961 574.079,313.177 572.335,308.825C570.591,304.473 569.719,299.769 569.719,294.713C569.719,289.657 570.591,284.953 572.335,280.601C574.079,276.249 576.543,272.473 579.727,269.273C582.911,266.073 586.743,263.561 591.223,261.737C595.703,259.913 600.663,259.001 606.103,259.001C611.543,259.001 616.495,259.921 620.959,261.761C625.423,263.601 629.239,266.121 632.407,269.321C635.575,272.521 638.031,276.297 639.775,280.649C641.519,285.001 642.391,289.689 642.391,294.713ZM645.367,263.194C648.214,266.79 650.533,270.812 652.318,275.266C654.731,281.286 655.97,287.764 655.97,294.713C655.97,301.7 654.728,308.194 652.318,314.208C651.717,315.708 651.055,317.16 650.332,318.564C649.168,316.869 648.204,315.013 647.431,313.001C646.055,309.417 645.367,305.481 645.367,301.193L645.367,263.194ZM625.783,294.713C625.783,291.257 625.335,288.145 624.439,285.377C623.543,282.609 622.255,280.265 620.575,278.345C618.895,276.425 616.839,274.953 614.407,273.929C611.975,272.905 609.207,272.393 606.103,272.393C602.967,272.393 600.175,272.905 597.727,273.929C595.279,274.953 593.215,276.425 591.535,278.345C589.855,280.265 588.567,282.609 587.671,285.377C586.775,288.145 586.327,291.257 586.327,294.713C586.327,298.201 586.775,301.329 587.671,304.097C588.567,306.865 589.855,309.209 591.535,311.129C593.215,313.049 595.279,314.513 597.727,315.521C600.175,316.529 602.967,317.033 606.103,317.033C609.207,317.033 611.975,316.529 614.407,315.521C616.839,314.513 618.895,313.049 620.575,311.129C622.255,309.209 623.543,306.865 624.439,304.097C625.335,301.329 625.783,298.201 625.783,294.713ZM556.341,289.961L563.959,289.961L563.959,302.489L556.679,302.489C556.321,299.968 556.141,297.377 556.141,294.713C556.141,293.102 556.207,291.518 556.341,289.961ZM568.759,272.249L568.759,260.782C565.675,264.18 563.117,268.001 561.096,272.249L568.759,272.249Z" style="fill:rgb(53,53,53);"/>
        <path d="M675.415,316.889C677.591,316.889 679.535,316.529 681.247,315.809C682.959,315.089 684.407,314.057 685.591,312.713C686.775,311.369 687.679,309.729 688.303,307.793C688.927,305.857 689.239,303.657 689.239,301.193L689.239,259.769L705.463,259.769L705.463,301.193C705.463,305.481 704.767,309.417 703.375,313.001C701.983,316.585 699.991,319.673 697.399,322.265C694.807,324.857 691.655,326.873 687.943,328.313C684.231,329.753 680.055,330.473 675.415,330.473C670.743,330.473 666.551,329.753 662.839,328.313C659.127,326.873 655.975,324.857 653.383,322.265C650.791,319.673 648.807,316.585 647.431,313.001C646.055,309.417 645.367,305.481 645.367,301.193L645.367,259.769L661.591,259.769L661.591,301.145C661.591,303.609 661.903,305.809 662.527,307.745C663.151,309.681 664.055,311.329 665.239,312.689C666.423,314.049 667.871,315.089 669.583,315.809C671.295,316.529 673.239,316.889 675.415,316.889ZM719.042,259.769L712.183,259.769L712.183,325.728C713.669,323.417 714.934,320.922 715.974,318.242C717.985,313.064 719.042,307.388 719.042,301.193L719.042,259.769ZM631.789,268.713C631.998,268.913 632.204,269.116 632.407,269.321C635.575,272.521 638.031,276.297 639.775,280.649C641.519,285.001 642.391,289.689 642.391,294.713C642.391,299.769 641.519,304.473 639.775,308.825C638.462,312.101 636.746,315.055 634.626,317.687C632.764,312.662 631.789,307.169 631.789,301.193L631.789,268.713Z" style="fill:rgb(53,53,53);"/>
        <path d="M767.711,314.382C767.841,315.15 767.906,315.939 767.906,316.745L767.906,329.705L767.898,330.03C767.624,329.952 767.357,329.859 767.095,329.753C766.071,329.337 765.183,328.761 764.431,328.025C763.679,327.289 763.087,326.417 762.655,325.409C762.223,324.401 762.007,323.321 762.007,322.169C762.007,321.017 762.223,319.945 762.655,318.953C763.087,317.961 763.679,317.097 764.431,316.361C765.183,315.625 766.071,315.041 767.095,314.609C767.297,314.524 767.502,314.448 767.711,314.382ZM728.407,316.745L754.327,316.745L754.327,329.705L712.183,329.705L712.183,259.769L728.407,259.769L728.407,316.745ZM698.605,259.769L705.463,259.769L705.463,301.193C705.463,305.481 704.767,309.417 703.375,313.001C702.209,316.005 700.62,318.661 698.605,320.963L698.605,259.769Z" style="fill:rgb(53,53,53);"/>
        <path d="M762.007,322.169C762.007,321.017 762.223,319.945 762.655,318.953C763.087,317.961 763.679,317.097 764.431,316.361C765.183,315.625 766.071,315.041 767.095,314.609C768.119,314.177 769.239,313.961 770.455,313.961C771.639,313.961 772.743,314.177 773.767,314.609C774.791,315.041 775.687,315.625 776.455,316.361C777.223,317.097 777.823,317.961 778.255,318.953C778.687,319.945 778.903,321.017 778.903,322.169C778.903,323.321 778.687,324.401 778.255,325.409C777.823,326.417 777.223,327.289 776.455,328.025C775.687,328.761 774.791,329.337 773.767,329.753C772.743,330.169 771.639,330.377 770.455,330.377C769.239,330.377 768.119,330.169 767.095,329.753C766.071,329.337 765.183,328.761 764.431,328.025C763.679,327.289 763.087,326.417 762.655,325.409C762.223,324.401 762.007,323.321 762.007,322.169ZM749.078,316.745L754.327,316.745L754.327,329.705L749.703,329.705C748.861,327.333 748.429,324.822 748.429,322.169C748.429,320.282 748.647,318.475 749.078,316.745ZM774.63,318.894C774.799,319.148 774.943,319.421 775.068,319.711C775.396,320.478 775.586,321.293 775.586,322.169C775.586,323.088 775.38,323.936 775.035,324.727C774.727,325.435 774.298,326.046 773.761,326.571C773.322,327.001 772.82,327.37 772.221,327.622C771.68,327.85 771.098,328.014 770.455,328.014C769.805,328.014 769.204,327.86 768.642,327.622C768.099,327.393 767.637,327.062 767.229,326.672C766.653,326.119 766.2,325.472 765.876,324.727C765.531,323.936 765.325,323.088 765.325,322.169C765.325,321.293 765.514,320.478 765.843,319.711C765.967,319.422 766.11,319.148 766.278,318.894L774.63,318.894ZM777.559,259.769L777.559,287.225C777.559,290.169 777.383,293.089 777.031,295.985C776.679,298.881 776.215,301.833 775.639,304.841L765.559,304.841C764.983,301.833 764.519,298.881 764.167,295.985C763.815,293.089 763.639,290.169 763.639,287.225L763.639,259.769L777.559,259.769Z" style="fill:rgb(53,53,53);"/>
    </g>
</svg>
