<?xml version="1.0" encoding="UTF-8" standalone="no"?>
<!DOCTYPE svg PUBLIC "-//W3C//DTD SVG 1.1//EN" "http://www.w3.org/Graphics/SVG/1.1/DTD/svg11.dtd">
<svg width="100%" height="100%" viewBox="0 0 530 474" version="1.1" xmlns="http://www.w3.org/2000/svg" xmlnsXlink="http://www.w3.org/1999/xlink" xmlSpace="preserve" xmlnsSerif="http://www.serif.com/" style="fill-rule:evenodd;clip-rule:evenodd;stroke-linejoin:round;stroke-miterlimit:2;">
    <g transform="matrix(1,0,0,1,-190,-31)">
        <g transform="matrix(1.33497,0,-2.49063e-16,1.33497,-53.9367,19.0506)">
            <circle cx="302.581" cy="322.816" r="41.199" style="fill:rgb(161,0,32);"/>
        </g>
        <g transform="matrix(1.21361,0,-2.26421e-16,1.21361,-17.2152,58.2278)">
            <circle cx="302.581" cy="322.816" r="41.199" style="fill:rgb(197,0,47);"/>
        </g>
        <g transform="matrix(0.596255,0,0,0.596255,-2299.17,-510.919)">
            <path d="M4496.24,1563.33C4507.82,1576.09 4514.87,1593.02 4514.87,1611.59C4514.87,1651.25 4482.68,1683.45 4443.02,1683.45C4424.45,1683.45 4407.52,1676.39 4394.75,1664.81C4422.3,1671.56 4452.61,1664.18 4474.11,1642.68C4495.61,1621.18 4502.98,1590.88 4496.24,1563.33Z" style="fill:rgb(161,0,32);"/>
        </g>
        <g transform="matrix(0.596377,0,-1.11265e-16,0.283162,169.547,325.743)">
            <circle cx="302.581" cy="322.816" r="35.304" style="fill:rgb(219,97,126);"/>
        </g>
    </g>
    <g transform="matrix(1,0,0,1,-190,-31)">
        <g transform="matrix(1.33497,0,-2.49063e-16,1.33497,51.0633,19.0506)">
            <circle cx="302.581" cy="322.816" r="41.199" style="fill:rgb(161,0,32);"/>
        </g>
        <g transform="matrix(1.21361,0,-2.26421e-16,1.21361,87.7848,58.2278)">
            <circle cx="302.581" cy="322.816" r="41.199" style="fill:rgb(197,0,47);"/>
        </g>
        <g transform="matrix(0.596255,0,0,0.596255,-2194.17,-510.919)">
            <path d="M4496.24,1563.33C4507.82,1576.09 4514.87,1593.02 4514.87,1611.59C4514.87,1651.25 4482.68,1683.45 4443.02,1683.45C4424.45,1683.45 4407.52,1676.39 4394.75,1664.81C4422.3,1671.56 4452.61,1664.18 4474.11,1642.68C4495.61,1621.18 4502.98,1590.88 4496.24,1563.33Z" style="fill:rgb(161,0,32);"/>
        </g>
        <g transform="matrix(0.596377,0,-1.11265e-16,0.283162,274.547,325.743)">
            <circle cx="302.581" cy="322.816" r="35.304" style="fill:rgb(219,97,126);"/>
        </g>
    </g>
    <g transform="matrix(1,0,0,1,-190,-31)">
        <g transform="matrix(1.33497,0,-2.49063e-16,1.33497,156.063,19.0506)">
            <circle cx="302.581" cy="322.816" r="41.199" style="fill:rgb(161,0,32);"/>
        </g>
        <g transform="matrix(1.21361,0,-2.26421e-16,1.21361,192.785,58.2278)">
            <circle cx="302.581" cy="322.816" r="41.199" style="fill:rgb(197,0,47);"/>
        </g>
        <g transform="matrix(0.596255,0,0,0.596255,-2089.17,-510.919)">
            <path d="M4496.24,1563.33C4507.82,1576.09 4514.87,1593.02 4514.87,1611.59C4514.87,1651.25 4482.68,1683.45 4443.02,1683.45C4424.45,1683.45 4407.52,1676.39 4394.75,1664.81C4422.3,1671.56 4452.61,1664.18 4474.11,1642.68C4495.61,1621.18 4502.98,1590.88 4496.24,1563.33Z" style="fill:rgb(161,0,32);"/>
        </g>
        <g transform="matrix(0.596377,0,-1.11265e-16,0.283162,379.547,325.743)">
            <circle cx="302.581" cy="322.816" r="35.304" style="fill:rgb(219,97,126);"/>
        </g>
    </g>
    <g transform="matrix(1,0,0,1,0,181.807)">
        <g transform="matrix(1.33497,0,-2.49063e-16,1.33497,-138.849,-375.519)">
            <circle cx="302.581" cy="322.816" r="41.199" style="fill:rgb(161,0,32);"/>
        </g>
        <g transform="matrix(1.21361,0,-2.26421e-16,1.21361,-102.127,-336.342)">
            <circle cx="302.581" cy="322.816" r="41.199" style="fill:rgb(197,0,47);"/>
        </g>
        <g transform="matrix(0.596255,0,0,0.596255,-2384.08,-905.489)">
            <path d="M4496.24,1563.33C4507.82,1576.09 4514.87,1593.02 4514.87,1611.59C4514.87,1651.25 4482.68,1683.45 4443.02,1683.45C4424.45,1683.45 4407.52,1676.39 4394.75,1664.81C4422.3,1671.56 4452.61,1664.18 4474.11,1642.68C4495.61,1621.18 4502.98,1590.88 4496.24,1563.33Z" style="fill:rgb(161,0,32);"/>
        </g>
        <g transform="matrix(0.596377,0,-1.11265e-16,0.283162,84.6354,-68.827)">
            <circle cx="302.581" cy="322.816" r="35.304" style="fill:rgb(219,97,126);"/>
        </g>
    </g>
    <g transform="matrix(1,0,0,1,-190.315,-31.0459)">
        <g transform="matrix(1.33497,0,-2.49063e-16,1.33497,-1.16753,-71.8283)">
            <circle cx="302.581" cy="322.816" r="41.199" style="fill:rgb(161,0,32);"/>
        </g>
        <g transform="matrix(1.21361,0,-2.26421e-16,1.21361,35.554,-32.6511)">
            <circle cx="302.581" cy="322.816" r="41.199" style="fill:rgb(197,0,47);"/>
        </g>
        <g transform="matrix(0.596255,0,0,0.596255,-2246.4,-601.798)">
            <path d="M4496.24,1563.33C4507.82,1576.09 4514.87,1593.02 4514.87,1611.59C4514.87,1651.25 4482.68,1683.45 4443.02,1683.45C4424.45,1683.45 4407.52,1676.39 4394.75,1664.81C4422.3,1671.56 4452.61,1664.18 4474.11,1642.68C4495.61,1621.18 4502.98,1590.88 4496.24,1563.33Z" style="fill:rgb(161,0,32);"/>
        </g>
        <g transform="matrix(0.596377,0,-1.11265e-16,0.283162,222.317,234.864)">
            <circle cx="302.581" cy="322.816" r="35.304" style="fill:rgb(219,97,126);"/>
        </g>
    </g>
    <g transform="matrix(1,0,0,1,-190,-31)">
        <g transform="matrix(1.33497,0,-2.49063e-16,1.33497,103.725,-71.8742)">
            <circle cx="302.581" cy="322.816" r="41.199" style="fill:rgb(161,0,32);"/>
        </g>
        <g transform="matrix(1.21361,0,-2.26421e-16,1.21361,140.447,-32.697)">
            <circle cx="302.581" cy="322.816" r="41.199" style="fill:rgb(197,0,47);"/>
        </g>
        <g transform="matrix(0.596255,0,0,0.596255,-2141.51,-601.844)">
            <path d="M4496.24,1563.33C4507.82,1576.09 4514.87,1593.02 4514.87,1611.59C4514.87,1651.25 4482.68,1683.45 4443.02,1683.45C4424.45,1683.45 4407.52,1676.39 4394.75,1664.81C4422.3,1671.56 4452.61,1664.18 4474.11,1642.68C4495.61,1621.18 4502.98,1590.88 4496.24,1563.33Z" style="fill:rgb(161,0,32);"/>
        </g>
        <g transform="matrix(0.596377,0,-1.11265e-16,0.283162,327.209,234.818)">
            <circle cx="302.581" cy="322.816" r="35.304" style="fill:rgb(219,97,126);"/>
        </g>
    </g>
</svg>
